<?xml version="1.0" standalone="no"?>
<!DOCTYPE svg PUBLIC "-//W3C//DTD SVG 20010904//EN"
 "http://www.w3.org/TR/2001/REC-SVG-20010904/DTD/svg10.dtd">
<svg version="1.0" xmlns="http://www.w3.org/2000/svg"
 width="300.000000pt" height="300.000000pt" viewBox="0 0 300.000000 300.000000"
 preserveAspectRatio="xMidYMid meet">
<metadata>
Created by potrace 1.14, written by Peter Selinger 2001-2017
</metadata>
<g transform="translate(0.000000,300.000000) scale(0.100000,-0.100000)"
fill="#000000" stroke="none">
<path d="M1362 2681 l3 -219 -47 -5 c-55 -7 -182 -49 -253 -84 -78 -39 -194
-124 -260 -191 -89 -90 -110 -114 -108 -124 2 -4 -2 -8 -7 -8 -6 0 -10 -5 -10
-10 0 -6 -9 -20 -20 -32 -10 -12 -17 -25 -14 -30 3 -4 0 -8 -6 -8 -12 0 -41
-61 -34 -72 3 -5 0 -8 -6 -8 -6 0 -8 -4 -5 -10 3 -5 1 -10 -5 -10 -6 0 -8 -4
-5 -10 3 -5 1 -10 -5 -10 -7 0 -10 -7 -6 -15 3 -8 1 -15 -5 -15 -6 0 -8 -7 -5
-16 4 -10 2 -13 -6 -8 -8 5 -9 -2 -4 -22 4 -20 4 -24 -3 -15 -7 11 -11 6 -16
-22 -4 -19 -4 -40 0 -46 3 -6 1 -11 -6 -11 -7 0 -9 -10 -7 -25 3 -14 1 -25 -5
-25 -6 0 -7 -21 -4 -52 4 -35 3 -46 -3 -33 -6 14 -9 -6 -9 -63 -1 -57 2 -81
10 -77 7 5 8 -7 4 -39 -5 -32 -4 -46 4 -46 7 0 9 -9 5 -24 -3 -13 -1 -26 4
-30 5 -3 7 -18 4 -32 -3 -17 -1 -25 6 -20 6 4 8 -2 5 -14 -3 -11 0 -20 6 -20
5 0 8 -7 5 -15 -4 -8 -1 -15 7 -15 7 0 9 -3 6 -7 -4 -3 -2 -12 4 -20 6 -7 8
-13 5 -13 -4 0 5 -20 19 -43 14 -24 22 -47 18 -50 -3 -4 -1 -7 6 -7 7 0 9 -4
6 -10 -3 -5 -1 -10 5 -10 6 0 8 -4 5 -10 -3 -5 -1 -10 4 -10 6 0 11 -7 11 -15
0 -8 4 -15 9 -15 5 0 14 -14 21 -30 7 -17 16 -30 21 -30 5 0 9 -5 9 -10 0 -12
36 -54 110 -127 109 -108 280 -203 438 -243 l52 -14 2 -155 3 -155 30 -17 c17
-10 42 -21 58 -24 l27 -7 0 171 0 171 70 0 70 0 0 -171 0 -171 28 7 c15 3 41
14 57 24 l30 17 0 157 c0 129 3 157 14 157 43 0 234 77 306 123 99 64 100 65
136 102 16 17 35 30 41 30 6 0 14 7 17 16 3 9 21 29 39 44 17 15 29 31 26 36
-3 5 0 8 7 7 7 -2 15 5 17 14 2 10 17 32 33 49 17 18 28 38 25 46 -3 8 -2 12
3 9 15 -10 91 161 118 266 34 134 38 321 9 443 -16 66 -21 75 -27 55 -5 -16
-7 -19 -8 -7 -1 10 -10 43 -21 74 -25 72 -18 81 9 11 11 -29 20 -45 20 -35 1
18 -73 189 -92 215 -18 23 -19 4 -1 -22 9 -15 15 -28 13 -31 -3 -2 -15 15 -28
37 -12 22 -18 37 -12 34 15 -10 14 1 -5 29 -9 14 -20 22 -25 19 -5 -3 -9 -2
-8 3 4 21 -2 34 -13 27 -7 -4 -8 -3 -4 4 4 6 -7 26 -25 44 -17 18 -27 27 -23
19 5 -9 3 -12 -4 -7 -7 4 -12 13 -12 20 0 6 -17 28 -37 47 -20 18 -31 25 -24
14 7 -11 0 -5 -16 13 -16 17 -34 32 -40 32 -6 0 -13 7 -17 15 -3 8 -12 15 -21
15 -8 0 -15 4 -15 9 0 5 -10 13 -22 17 -13 4 -25 9 -28 13 -5 6 -117 62 -135
67 -5 2 -48 15 -95 29 -46 14 -93 26 -105 27 -20 2 -20 7 -17 220 l3 218 -36
0 -35 0 0 -213 0 -214 -70 0 -70 -1 0 214 0 214 -35 0 -36 0 3 -219z m208
-1206 l0 -925 -70 0 -70 0 -2 357 -3 358 -57 -58 -58 -58 0 -284 c0 -249 -2
-285 -15 -285 -31 0 -142 43 -230 88 -74 39 -109 66 -195 152 -121 121 -184
221 -226 360 -14 47 -31 96 -37 109 -16 33 -16 339 0 372 6 13 23 62 37 109
42 139 105 239 226 360 92 92 118 112 207 157 57 29 129 60 160 69 32 9 62 20
68 25 5 5 19 9 32 9 23 0 23 -1 23 -135 l0 -135 -25 0 -25 0 0 -365 0 -365
-175 -175 -175 -175 0 -70 c0 -38 3 -70 6 -70 4 0 110 103 235 229 l229 228 0
522 0 521 70 0 70 0 0 -925z m120 907 c0 -5 24 -14 54 -21 30 -7 104 -37 165
-67 89 -45 126 -71 200 -140 131 -123 217 -261 257 -412 10 -37 23 -70 28 -74
7 -5 11 -73 11 -193 0 -120 -4 -188 -11 -193 -5 -4 -18 -37 -28 -74 -40 -151
-126 -289 -257 -412 -76 -71 -110 -95 -202 -140 -104 -51 -201 -85 -213 -74
-2 3 -3 155 -2 339 l3 334 173 -171 172 -171 0 76 0 76 -175 175 c-96 96 -175
181 -175 188 0 7 41 52 90 101 l91 88 -3 74 -3 74 -85 -83 -85 -83 -3 260 c-2
253 -3 261 -22 261 -17 0 -20 7 -20 43 0 24 -3 85 -6 135 l-7 92 27 0 c14 0
26 -4 26 -8z m777 -764 c-3 -7 -5 -2 -5 12 0 14 2 19 5 13 2 -7 2 -19 0 -25z
m10 -100 c-2 -18 -4 -6 -4 27 0 33 2 48 4 33 2 -15 2 -42 0 -60z m0 -145 c-2
-16 -4 -3 -4 27 0 30 2 43 4 28 2 -16 2 -40 0 -55z m-10 -75 c-3 -7 -5 -2 -5
12 0 14 2 19 5 13 2 -7 2 -19 0 -25z m-10 -50 c-3 -8 -6 -5 -6 6 -1 11 2 17 5
13 3 -3 4 -12 1 -19z m-22 -79 c-8 -19 -13 -25 -9 -14 3 11 8 34 12 50 3 17 8
23 10 14 1 -9 -4 -32 -13 -50z"/>
</g>
</svg>
